<?xml version="1.0" standalone="no"?>
<!DOCTYPE svg PUBLIC "-//W3C//DTD SVG 20010904//EN"
 "http://www.w3.org/TR/2001/REC-SVG-20010904/DTD/svg10.dtd">
<svg version="1.0" xmlns="http://www.w3.org/2000/svg"
 width="700.000000pt" height="700.000000pt" viewBox="0 0 700.000000 700.000000"
 preserveAspectRatio="xMidYMid meet">
<metadata>
Created by potrace 1.11, written by Peter Selinger 2001-2013
</metadata>
<g transform="translate(0.000000,700.000000) scale(0.100000,-0.100000)"
fill="#000000" stroke="none">
<path d="M4566 5595 c-191 -382 -349 -695 -351 -695 -3 0 -27 9 -56 20 -52 21
-174 57 -219 66 -14 3 -38 9 -55 14 -16 5 -54 11 -84 14 -29 4 -58 9 -63 12
-14 9 -337 12 -418 4 -66 -7 -109 -13 -185 -26 -50 -8 -218 -56 -290 -83 -459
-168 -857 -536 -1057 -977 -128 -282 -178 -520 -173 -824 2 -85 6 -175 10
-200 14 -99 27 -168 41 -220 9 -30 17 -65 20 -78 9 -46 84 -234 127 -320 214
-427 595 -766 1044 -928 88 -32 239 -73 296 -80 15 -2 39 -6 55 -9 78 -15 141
-19 277 -19 162 -1 248 6 365 29 41 9 89 18 105 21 52 10 237 74 320 112 457
207 824 599 995 1063 33 90 87 296 96 369 3 25 8 56 11 70 8 41 11 366 3 417
-4 27 -11 71 -14 98 -19 149 -93 378 -174 541 -45 91 -147 260 -175 289 -7 7
-19 23 -27 36 -21 32 -111 131 -190 207 -73 71 -186 160 -272 216 -32 20 -58
38 -58 41 0 2 155 314 345 693 190 379 345 692 345 696 0 5 -233 126 -243 126
-2 0 -159 -313 -351 -695z"/>
</g>
</svg>
